<svg xmlns="http://www.w3.org/2000/svg" width="1320" height="760" viewBox="0 0 1320 760" role="img" aria-labelledby="title desc">
  <title id="title">VibeCheckBench preference areas</title>
  <desc id="desc">Six user-fit preference areas: doesn't overclaim, keeps it high-signal, pushes back kindly, respects my asks, helps without overstepping, and helps me choose.</desc>
  <defs>
    <filter id="shadow" x="-20%" y="-20%" width="140%" height="140%">
      <feDropShadow dx="0" dy="12" stdDeviation="18" flood-color="#20304a" flood-opacity="0.10"/>
    </filter>
    <style>
      .bg { fill: #fbfaf6; }
      .ink { fill: #1f2a44; }
      .muted { fill: #58667d; }
      .card { stroke-width: 1.5; filter: url(#shadow); }
      .title { font: 800 48px Inter, ui-sans-serif, system-ui, -apple-system, Segoe UI, sans-serif; letter-spacing: 0; }
      .sub { font: 500 24px Inter, ui-sans-serif, system-ui, -apple-system, Segoe UI, sans-serif; letter-spacing: 0; }
      .h { font: 800 28px Inter, ui-sans-serif, system-ui, -apple-system, Segoe UI, sans-serif; letter-spacing: 0; }
      .body { font: 500 21px Inter, ui-sans-serif, system-ui, -apple-system, Segoe UI, sans-serif; letter-spacing: 0; }
      .tiny { font: 700 16px Inter, ui-sans-serif, system-ui, -apple-system, Segoe UI, sans-serif; letter-spacing: .02em; }
      .icon { fill: none; stroke-width: 7; stroke-linecap: round; stroke-linejoin: round; }
    </style>
  </defs>

  <rect width="1320" height="760" rx="0" class="bg"/>
  <text x="70" y="86" class="title ink">What VibeCheckBench checks</text>
  <text x="70" y="126" class="sub muted">Preference-fit areas for the tiny interaction patterns standard benchmarks often miss.</text>

  <g transform="translate(70 180)">
    <rect x="0" y="0" width="370" height="210" rx="18" class="card" fill="#effafa" stroke="#bfe5e2"/>
    <circle cx="54" cy="58" r="27" fill="#d7f3f1"/>
    <path d="M43 57 L52 66 L68 47" class="icon" stroke="#0f8f8f"/>
    <text x="92" y="55" class="h ink">Doesn't overclaim</text>
    <text x="92" y="88" class="body muted">Separates facts, assumptions,</text>
    <text x="92" y="116" class="body muted">uncertainty, and what still</text>
    <text x="92" y="144" class="body muted">needs checking.</text>
    <text x="28" y="182" class="tiny" fill="#0f8f8f">TRUST + CALIBRATION</text>

    <rect x="400" y="0" width="370" height="210" rx="18" class="card" fill="#fff6ef" stroke="#ffd3bd"/>
    <circle cx="454" cy="58" r="27" fill="#ffe3d7"/>
    <path d="M440 52 H469 M440 64 H461" class="icon" stroke="#ff775f"/>
    <text x="492" y="55" class="h ink">Keeps it high-signal</text>
    <text x="492" y="88" class="body muted">Stays concise without dropping</text>
    <text x="492" y="116" class="body muted">the nuance the user actually</text>
    <text x="492" y="144" class="body muted">needed.</text>
    <text x="428" y="182" class="tiny" fill="#c85c48">CONCISION + USEFULNESS</text>

    <rect x="800" y="0" width="370" height="210" rx="18" class="card" fill="#f3f2ff" stroke="#d8d3ff"/>
    <circle cx="854" cy="58" r="27" fill="#e4e0ff"/>
    <path d="M842 58 H866 M854 46 V70" class="icon" stroke="#7167c7"/>
    <text x="892" y="55" class="h ink">Pushes back kindly</text>
    <text x="892" y="88" class="body muted">Supports the person without</text>
    <text x="892" y="116" class="body muted">rubber-stamping weak claims</text>
    <text x="892" y="144" class="body muted">or flattering.</text>
    <text x="828" y="182" class="tiny" fill="#7167c7">HONEST SUPPORT</text>
  </g>

  <g transform="translate(70 430)">
    <rect x="0" y="0" width="370" height="210" rx="18" class="card" fill="#f5fbef" stroke="#d3e9bd"/>
    <circle cx="54" cy="58" r="27" fill="#e3f4d4"/>
    <path d="M41 46 H68 M41 58 H68 M41 70 H58" class="icon" stroke="#6ea34f"/>
    <text x="92" y="55" class="h ink">Respects my asks</text>
    <text x="92" y="88" class="body muted">Keeps the requested format,</text>
    <text x="92" y="116" class="body muted">constraints, exclusions, and</text>
    <text x="92" y="144" class="body muted">level of detail.</text>
    <text x="28" y="182" class="tiny" fill="#5d8e42">CONSTRAINT FOLLOWING</text>

    <rect x="400" y="0" width="370" height="210" rx="18" class="card" fill="#f0f8ff" stroke="#c7def1"/>
    <circle cx="454" cy="58" r="27" fill="#dcefff"/>
    <path d="M439 66 C439 53 447 46 454 46 C461 46 469 53 469 66 M445 74 H463" class="icon" stroke="#3f83b8"/>
    <text x="492" y="55" class="h ink">Helps without</text>
    <text x="492" y="88" class="h ink">overstepping</text>
    <text x="492" y="121" class="body muted">Gives bounded help instead of</text>
    <text x="492" y="149" class="body muted">over-refusing or oversharing.</text>
    <text x="428" y="182" class="tiny" fill="#3f83b8">BOUNDARIES + SAFETY</text>

    <rect x="800" y="0" width="370" height="210" rx="18" class="card" fill="#fff8df" stroke="#ecd997"/>
    <circle cx="854" cy="58" r="27" fill="#fff0b8"/>
    <path d="M842 50 L854 42 L866 50 M854 43 V73 M842 73 H866" class="icon" stroke="#c89a15"/>
    <text x="892" y="55" class="h ink">Helps me choose</text>
    <text x="892" y="88" class="body muted">Shows tradeoffs and next</text>
    <text x="892" y="116" class="body muted">steps without taking over</text>
    <text x="892" y="144" class="body muted">the decision.</text>
    <text x="828" y="182" class="tiny" fill="#a88012">AGENCY + DECISION FIT</text>
  </g>

  <text x="70" y="704" class="sub muted">The point is not "best model overall." It is "which setup fits this person, task, and workflow?"</text>
</svg>
